<?xml version="1.0" encoding="iso-8859-1"?>
<!-- Uploaded to: SVG Repo, www.svgrepo.com, Generator: SVG Repo Mixer Tools -->
<svg fill="#000000" height="800px" width="800px" version="1.1" id="Layer_1" xmlns="http://www.w3.org/2000/svg" xmlns:xlink="http://www.w3.org/1999/xlink" 
	 viewBox="0 0 496 496" xml:space="preserve">
<g>
	<g>
		<g>
			<path d="M200,32c-92.64,0-168,75.36-168,168s75.36,168,168,168s168-75.36,168-168S292.64,32,200,32z M200,352
				c-83.816,0-152-68.184-152-152S116.184,48,200,48s152,68.184,152,152S283.816,352,200,352z"/>
			<path d="M483.712,424.4l-88.4-88.4l10.344-10.344l-11.312-11.312L384,324.688l-16.144-16.144
				C388.152,277.256,400,239.992,400,200C400,89.72,310.28,0,200,0S0,89.72,0,200s89.72,200,200,200
				c39.992,0,77.256-11.848,108.544-32.144L324.688,384l-10.344,10.344l11.312,11.312L336,395.312l88.4,88.4
				c7.92,7.92,18.456,12.288,29.656,12.288C477.184,496,496,477.184,496,454.056C496,442.856,491.64,432.328,483.712,424.4z
				 M200,384C98.544,384,16,301.456,16,200S98.544,16,200,16s184,82.544,184,184S301.456,384,200,384z M321.792,358.48
				c13.752-10.6,26.088-22.936,36.688-36.688L372.688,336L336,372.688L321.792,358.48z M454.056,480
				c-6.928,0-13.44-2.696-18.344-7.6l-88.4-88.4L384,347.312l88.4,88.4c4.896,4.904,7.6,11.416,7.6,18.344
				C480,468.36,468.36,480,454.056,480z"/>
			<path d="M200,77.904L72.48,176H112v128h176V176h39.52L200,77.904z M224,288h-48v-40c0-13.232,10.768-24,24-24s24,10.768,24,24
				V288z M272,288h-32v-40c0-22.056-17.944-40-40-40c-22.056,0-40,17.944-40,40v40h-32V176h144V288z M119.52,160L200,98.096
				L280.48,160H119.52z"/>
		</g>
	</g>
</g>
</svg>